<?xml version="1.0" encoding="iso-8859-1"?>
<!-- Generator: Adobe Illustrator 17.1.0, SVG Export Plug-In . SVG Version: 6.00 Build 0)  -->
<!DOCTYPE svg PUBLIC "-//W3C//DTD SVG 1.1//EN" "http://www.w3.org/Graphics/SVG/1.1/DTD/svg11.dtd">
<svg version="1.1" id="Capa_1" xmlns="http://www.w3.org/2000/svg" xmlns:xlink="http://www.w3.org/1999/xlink" x="0px" y="0px"
	 viewBox="0 0 81.838 81.838" style="enable-background:new 0 0 81.838 81.838;" xml:space="preserve">
<g>
	<path d="M69.322,71.142L46.396,53.069V30.01l20.165-3.202c1.581-0.251,2.818-1.701,2.818-3.302v-1.622
		c0-1.673-1.422-2.953-3.132-2.673l-22.98,3.649H27.73c-0.008,0-0.015,0.002-0.022,0.002l-4.832-1.376
		c-0.73-0.207-1.59-1.059-1.806-1.787l-3.8-12.833c-0.447-1.511-2.086-2.55-3.676-2.25l-0.771,0.144
		c-0.796,0.149-1.473,0.6-1.906,1.271s-0.565,1.473-0.372,2.259l4.078,16.641c0.341,1.393,1.602,2.844,2.933,3.376l7.173,2.867
		v21.804l-7.538,5.808c-1.493,1.15-2.104,3.419-1.391,5.165l6.075,14.858c0.694,1.697,2.675,3.027,4.509,3.027h2.686
		c1.018,0,1.886-0.418,2.382-1.148c0.496-0.729,0.564-1.69,0.189-2.637l-5.327-13.425c-0.343-0.865,0.058-2.041,0.857-2.518
		l7.659-4.557h1.994c0.125,0.12,0.238,0.25,0.376,0.359l26.701,21.05c0.877,0.691,1.948,1.072,3.015,1.072
		c1.501,0,2.837-0.711,3.666-1.951C72.021,75.938,71.454,72.823,69.322,71.142z"/>
	<path d="M35.563,20.572c5.671,0,10.286-4.614,10.286-10.286C45.849,4.614,41.235,0,35.563,0c-5.672,0-10.287,4.614-10.287,10.286
		C25.277,15.958,29.891,20.572,35.563,20.572z"/>
</g>
<g>
</g>
<g>
</g>
<g>
</g>
<g>
</g>
<g>
</g>
<g>
</g>
<g>
</g>
<g>
</g>
<g>
</g>
<g>
</g>
<g>
</g>
<g>
</g>
<g>
</g>
<g>
</g>
<g>
</g>
</svg>
